<svg width="2192" height="2500" viewBox="0 0 256 292" xmlns="http://www.w3.org/2000/svg" preserveAspectRatio="xMidYMid">
  <!-- Base Shopify icon with orders-specific styling -->
  <path d="M223.774 57.34c-.201-1.46-1.48-2.268-2.537-2.357-1.055-.088-23.383-1.743-23.383-1.743s-15.507-15.395-17.209-17.099c-1.703-1.703-5.029-1.185-6.32-.805-.19.056-3.388 1.043-8.678 2.68-5.18-14.906-14.322-28.604-30.405-28.604-.444 0-.901.018-1.358.044C129.31 3.407 123.644.779 118.75.779c-37.465 0-55.364 46.835-60.976 70.635-14.558 4.511-24.9 7.718-26.221 8.133-8.126 2.549-8.383 2.805-9.45 10.462C21.3 95.806.038 260.235.038 260.235l165.678 31.042 89.77-19.42S223.973 58.8 223.775 57.34zM156.49 40.848l-14.019 4.339c.005-.988.01-1.96.01-3.023 0-9.264-1.286-16.723-3.349-22.636 8.287 1.04 13.806 10.469 17.358 21.32zm-27.638-19.483c2.304 5.773 3.802 14.058 3.802 25.238 0 .572-.005 1.095-.01 1.624-9.117 2.824-19.024 5.90-28.953 8.966 5.575-21.516 16.025-31.908 25.161-35.828zm-11.131-10.537c1.617 0 3.246.549 4.805 1.622-12.007 5.65-24.877 19.88-30.312 48.297l-22.886 7.088C75.694 46.16 90.81 10.828 117.72 10.828z" fill="#95BF46"/>
  <path d="M221.237 54.983c-1.055-.088-23.383-1.743-23.383-1.743s-15.507-15.395-17.209-17.099c-.637-.634-1.496-.959-2.394-1.099l-12.527 256.233 89.762-19.418S223.972 58.8 223.774 57.34c-.201-1.46-1.48-2.268-2.537-2.357" fill="#5E8E3E"/>
  <!-- Order/Receipt icon overlay -->
  <rect x="90" y="110" width="76" height="95" rx="3" fill="#FFF" stroke="#333" stroke-width="1"/>
  <line x1="100" y1="125" x2="156" y2="125" stroke="#333" stroke-width="2"/>
  <line x1="100" y1="140" x2="146" y2="140" stroke="#333" stroke-width="1"/>
  <line x1="100" y1="155" x2="140" y2="155" stroke="#333" stroke-width="1"/>
  <line x1="100" y1="170" x2="150" y2="170" stroke="#333" stroke-width="1"/>
  <line x1="100" y1="185" x2="156" y2="185" stroke="#333" stroke-width="2"/>
</svg>